<svg width="1440" height="900" viewBox="0 0 1440 900" fill="none" xmlns="http://www.w3.org/2000/svg">
<g clip-path="url(#clip0)">
<rect width="1440" height="900" fill="white"/>
<g style="mix-blend-mode:darken">
<rect x="350.03" y="678.957" width="60" height="64.2857" rx="3" transform="rotate(-76 350.03 678.957)" fill="#C4C4C4"/>
</g>
<rect x="323" y="672.218" width="11.7857" height="33.2143" rx="3" transform="rotate(-76 323 672.218)" fill="#C4C4C4"/>
<rect x="334.664" y="625.436" width="11.7857" height="33.2143" rx="3" transform="rotate(-76 334.664 625.436)" fill="#C4C4C4"/>
<circle cx="358.327" cy="650.107" r="4.28571" transform="rotate(-76 358.327 650.107)" fill="#C4C4C4"/>
<g style="mix-blend-mode:darken">
<rect x="1115.51" y="21.161" width="60" height="64.2857" rx="3" transform="rotate(58 1115.51 21.161)" fill="#C4C4C4"/>
</g>
<rect x="1139.13" y="6.39899" width="11.7857" height="33.2143" rx="3" transform="rotate(58 1139.13 6.39899)" fill="#C4C4C4"/>
<rect x="1164.68" y="47.287" width="11.7857" height="33.2143" rx="3" transform="rotate(58 1164.68 47.287)" fill="#C4C4C4"/>
<circle cx="1130.5" cy="47.1702" r="4.28571" transform="rotate(58 1130.5 47.1702)" fill="#C4C4C4"/>
<g style="mix-blend-mode:darken">
<rect x="1380.72" y="277.778" width="60" height="64.2857" rx="3" transform="rotate(16 1380.72 277.778)" fill="#C4C4C4"/>
</g>
<rect x="1388.4" y="251" width="11.7857" height="33.2143" rx="3" transform="rotate(16 1388.4 251)" fill="#C4C4C4"/>
<rect x="1434.74" y="264.29" width="11.7857" height="33.2143" rx="3" transform="rotate(16 1434.74 264.29)" fill="#C4C4C4"/>
<circle cx="1409.26" cy="287.077" r="4.28571" transform="rotate(16 1409.26 287.077)" fill="#C4C4C4"/>
<g style="mix-blend-mode:darken">
<rect x="695.9" y="924.318" width="60" height="64.2857" rx="3" transform="rotate(-99 695.9 924.318)" fill="#C4C4C4"/>
</g>
<rect x="660.844" y="881.055" width="11.7857" height="33.2143" rx="3" transform="rotate(-99 660.844 881.055)" fill="#C4C4C4"/>
<circle cx="692.265" cy="894.52" r="4.28571" transform="rotate(-99 692.265 894.52)" fill="#C4C4C4"/>
<g style="mix-blend-mode:darken">
<rect x="446.139" y="104.608" width="60" height="64.2857" rx="3" transform="rotate(72 446.139 104.608)" fill="#C4C4C4"/>
</g>
<rect x="472.633" y="96" width="11.7857" height="33.2143" rx="3" transform="rotate(72 472.633 96)" fill="#C4C4C4"/>
<rect x="487.532" y="141.854" width="11.7857" height="33.2143" rx="3" transform="rotate(72 487.532 141.854)" fill="#C4C4C4"/>
<circle cx="454.391" cy="133.471" r="4.28571" transform="rotate(72 454.391 133.471)" fill="#C4C4C4"/>
<g style="mix-blend-mode:darken">
<rect x="830.743" y="612.558" width="60" height="64.2857" rx="3" transform="rotate(-58 830.743 612.558)" fill="#C4C4C4"/>
</g>
<rect x="807.119" y="597.796" width="11.7857" height="33.2143" rx="3" transform="rotate(-58 807.119 597.796)" fill="#C4C4C4"/>
<rect x="832.668" y="556.908" width="11.7857" height="33.2143" rx="3" transform="rotate(-58 832.668 556.908)" fill="#C4C4C4"/>
<circle cx="847.549" cy="587.684" r="4.28571" transform="rotate(-58 847.549 587.684)" fill="#C4C4C4"/>
<g style="mix-blend-mode:darken">
<rect x="1200.98" y="534.234" width="60" height="64.2857" rx="3" transform="rotate(-35 1200.98 534.234)" fill="#C4C4C4"/>
</g>
<rect x="1185" y="511.415" width="11.7857" height="33.2143" rx="3" transform="rotate(-35 1185 511.415)" fill="#C4C4C4"/>
<rect x="1224.49" y="483.76" width="11.7857" height="33.2143" rx="3" transform="rotate(-35 1224.49 483.76)" fill="#C4C4C4"/>
<circle cx="1226.17" cy="517.904" r="4.28571" transform="rotate(-35 1226.17 517.904)" fill="#C4C4C4"/>
<rect x="910.5" y="50.5403" width="65" height="96" rx="2" transform="rotate(140 910.5 50.5403)" fill="#C4C4C4"/>
<ellipse cx="875.319" cy="59.1742" rx="12.5" ry="5" transform="rotate(140 875.319 59.1742)" fill="white"/>
<rect x="275.729" y="818" width="65" height="96" rx="2" transform="rotate(75 275.729 818)" fill="#C4C4C4"/>
<ellipse cx="268.686" cy="853.534" rx="12.5" ry="5" transform="rotate(75 268.686 853.534)" fill="white"/>
<rect x="967.708" y="397" width="65" height="96" rx="2" transform="rotate(40 967.708 397)" fill="#C4C4C4"/>
<ellipse cx="982.319" cy="430.147" rx="12.5" ry="5" transform="rotate(40 982.319 430.147)" fill="white"/>
<rect x="75.5102" y="445" width="65" height="96" rx="2" transform="rotate(23 75.5102 445)" fill="#C4C4C4"/>
<ellipse cx="99.1749" cy="472.427" rx="12.5" ry="5" transform="rotate(23 99.1749 472.427)" fill="white"/>
<rect x="472.5" y="501.292" width="65" height="96" rx="2" transform="rotate(-120 472.5 501.292)" fill="#C4C4C4"/>
<ellipse cx="470.106" cy="465.146" rx="12.5" ry="5" transform="rotate(-120 470.106 465.146)" fill="white"/>
<rect x="1018" y="874.793" width="65" height="96" rx="2" transform="rotate(-50 1018 874.793)" fill="#C4C4C4"/>
<ellipse cx="1051.15" cy="860.181" rx="12.5" ry="5" transform="rotate(-50 1051.15 860.181)" fill="white"/>
<ellipse cx="399.794" cy="838.285" rx="14" ry="6" transform="rotate(-60 399.794 838.285)" fill="#C4C4C4"/>
<path d="M407.301 827.476C406.078 827.993 404.699 827.197 404.536 825.879L403.854 820.37C403.652 818.731 405.409 817.566 406.839 818.392L412.633 821.737C414.063 822.563 413.933 824.667 412.413 825.311L407.301 827.476Z" fill="#C4C4C4"/>
<path d="M392.288 849.094C393.511 848.576 394.889 849.372 395.052 850.69L395.734 856.2C395.937 857.838 394.179 859.003 392.749 858.177L386.955 854.832C385.525 854.007 385.655 851.902 387.175 851.258L392.288 849.094Z" fill="#C4C4C4"/>
<ellipse cx="74.9296" cy="729.882" rx="14" ry="6" transform="rotate(34 74.9296 729.882)" fill="#C4C4C4"/>
<path d="M85.1888 738.124C84.7576 736.868 85.6478 735.548 86.9739 735.477L92.5178 735.182C94.1665 735.094 95.2056 736.929 94.2824 738.297L90.5411 743.844C89.6179 745.213 87.5275 744.937 86.9914 743.375L85.1888 738.124Z" fill="#C4C4C4"/>
<path d="M64.6705 721.64C65.1017 722.896 64.2116 724.216 62.8854 724.286L57.3415 724.582C55.6928 724.67 54.6537 722.835 55.5769 721.467L59.3182 715.92C60.2414 714.551 62.3318 714.827 62.8679 716.389L64.6705 721.64Z" fill="#C4C4C4"/>
<ellipse cx="651.244" cy="6.43811" rx="14" ry="6" transform="rotate(-93 651.244 6.43811)" fill="#C4C4C4"/>
<path d="M650.835 19.5917C651.579 18.4914 653.169 18.408 654.023 19.4246L657.596 23.6742C658.658 24.938 657.818 26.872 656.17 26.9584L649.488 27.3086C647.84 27.395 646.802 25.5593 647.727 24.1914L650.835 19.5917Z" fill="#C4C4C4"/>
<ellipse cx="429.793" cy="381.347" rx="14" ry="6" transform="rotate(-78 429.793 381.347)" fill="#C4C4C4"/>
<path d="M433.592 368.747C432.589 369.617 431.032 369.286 430.469 368.083L428.119 363.054C427.419 361.558 428.731 359.907 430.346 360.251L436.89 361.642C438.505 361.985 439.032 364.027 437.785 365.109L433.592 368.747Z" fill="#C4C4C4"/>
<path d="M425.994 393.946C426.997 393.076 428.555 393.407 429.117 394.61L431.468 399.64C432.167 401.135 430.855 402.786 429.24 402.443L422.696 401.052C421.081 400.708 420.554 398.667 421.801 397.585L425.994 393.946Z" fill="#C4C4C4"/>
<ellipse cx="1000" cy="623" rx="14" ry="6" transform="rotate(115 1000 623)" fill="#C4C4C4"/>
<path d="M993.464 634.422C994.637 633.8 996.08 634.473 996.357 635.771L997.517 641.201C997.862 642.815 996.212 644.129 994.716 643.431L988.652 640.603C987.156 639.906 987.101 637.798 988.56 637.024L993.464 634.422Z" fill="#C4C4C4"/>
<path d="M1006.54 611.578C1005.36 612.2 1003.92 611.527 1003.64 610.229L1002.48 604.799C1002.14 603.185 1003.79 601.871 1005.28 602.569L1011.35 605.397C1012.84 606.094 1012.9 608.202 1011.44 608.976L1006.54 611.578Z" fill="#C4C4C4"/>
<ellipse cx="710.3" cy="767.555" rx="14" ry="6" transform="rotate(-169 710.3 767.555)" fill="#C4C4C4"/>
<path d="M697.636 763.977C698.523 764.964 698.22 766.527 697.026 767.11L692.039 769.549C690.556 770.274 688.882 768.991 689.197 767.37L690.474 760.803C690.789 759.182 692.821 758.619 693.925 759.847L697.636 763.977Z" fill="#C4C4C4"/>
<path d="M722.964 771.133C722.076 770.146 722.38 768.583 723.573 768L728.56 765.561C730.044 764.836 731.717 766.119 731.402 767.74L730.126 774.307C729.81 775.928 727.778 776.49 726.675 775.262L722.964 771.133Z" fill="#C4C4C4"/>
<ellipse cx="6.99997" cy="446" rx="14" ry="6" transform="rotate(-10 6.99997 446)" fill="#C4C4C4"/>
<path d="M20.1052 444.802C18.9225 444.198 18.6461 442.631 19.5509 441.658L23.3334 437.595C24.4583 436.386 26.4803 436.984 26.767 438.61L27.9288 445.199C28.2155 446.825 26.52 448.078 25.0496 447.327L20.1052 444.802Z" fill="#C4C4C4"/>
<ellipse cx="872.93" cy="337.882" rx="14" ry="6" transform="rotate(14 872.93 337.882)" fill="#C4C4C4"/>
<path d="M885.389 342.118C884.554 341.085 884.939 339.541 886.161 339.021L891.27 336.847C892.789 336.2 894.393 337.569 893.993 339.171L892.375 345.663C891.976 347.265 889.917 347.72 888.879 346.436L885.389 342.118Z" fill="#C4C4C4"/>
<path d="M860.47 333.646C861.305 334.679 860.92 336.223 859.698 336.743L854.589 338.917C853.07 339.564 851.466 338.195 851.866 336.593L853.484 330.101C853.884 328.499 855.942 328.044 856.98 329.328L860.47 333.646Z" fill="#C4C4C4"/>
<ellipse cx="1243" cy="324" rx="14" ry="6" transform="rotate(17 1243 324)" fill="#C4C4C4"/>
<path d="M1255.22 328.882C1254.44 327.807 1254.91 326.285 1256.15 325.83L1261.37 323.926C1262.92 323.36 1264.45 324.811 1263.97 326.39L1262.01 332.788C1261.53 334.367 1259.45 334.714 1258.48 333.377L1255.22 328.882Z" fill="#C4C4C4"/>
<path d="M1230.78 319.118C1231.56 320.193 1231.09 321.715 1229.85 322.17L1224.63 324.074C1223.08 324.64 1221.55 323.189 1222.03 321.61L1223.99 315.212C1224.47 313.634 1226.55 313.286 1227.52 314.623L1230.78 319.118Z" fill="#C4C4C4"/>
<ellipse cx="267.335" cy="76.3345" rx="14" ry="6" transform="rotate(-45 267.335 76.3345)" fill="#C4C4C4"/>
<path d="M277.383 67.8365C276.067 68.0201 274.942 66.8945 275.125 65.5792L275.893 60.0808C276.121 58.4456 278.121 57.7756 279.288 58.9431L284.019 63.6739C285.186 64.8414 284.516 66.8406 282.881 67.0689L277.383 67.8365Z" fill="#C4C4C4"/>
<path d="M257.286 84.8325C258.602 84.6489 259.727 85.7746 259.544 87.0898L258.776 92.5883C258.548 94.2235 256.549 94.8934 255.381 93.726L250.65 88.9951C249.483 87.8277 250.153 85.8284 251.788 85.6001L257.286 84.8325Z" fill="#C4C4C4"/>
<ellipse cx="75" cy="189" rx="14" ry="6" transform="rotate(24 75 189)" fill="#C4C4C4"/>
<path d="M86.5345 195.335C85.8917 194.173 86.5392 192.719 87.8329 192.419L93.2413 191.165C94.8496 190.792 96.1916 192.419 95.5201 193.927L92.7988 200.039C92.1273 201.547 90.0207 201.638 89.2216 200.194L86.5345 195.335Z" fill="#C4C4C4"/>
<path d="M63.4655 182.665C64.1083 183.827 63.4608 185.281 62.1671 185.581L56.7587 186.835C55.1504 187.208 53.8084 185.581 54.4799 184.073L57.2012 177.961C57.8727 176.453 59.9793 176.362 60.7784 177.806L63.4655 182.665Z" fill="#C4C4C4"/>
<ellipse cx="233" cy="562" rx="14" ry="6" transform="rotate(-38 233 562)" fill="#C4C4C4"/>
<path d="M244.009 554.79C242.681 554.812 241.701 553.557 242.044 552.274L243.475 546.91C243.901 545.315 245.967 544.894 246.984 546.195L251.103 551.467C252.119 552.768 251.211 554.671 249.56 554.698L244.009 554.79Z" fill="#C4C4C4"/>
<path d="M221.991 569.21C223.319 569.188 224.299 570.443 223.956 571.726L222.524 577.09C222.099 578.685 220.033 579.106 219.016 577.805L214.897 572.533C213.881 571.232 214.789 569.329 216.44 569.302L221.991 569.21Z" fill="#C4C4C4"/>
<rect x="-10.5821" y="929.082" width="49" height="69.2759" transform="rotate(-133 -10.5821 929.082)" fill="#C4C4C4"/>
<rect x="1204.64" y="205.847" width="49" height="69.2759" transform="rotate(-144 1204.64 205.847)" fill="#C4C4C4"/>
<rect x="1196.31" y="191.441" width="18.5862" height="5.06897" rx="2.53448" transform="rotate(-144 1196.31 191.441)" fill="white"/>
<rect x="1189.85" y="188.835" width="5.06897" height="5.06897" rx="2.53448" transform="rotate(-144 1189.85 188.835)" fill="white"/>
<rect x="892.009" y="269.885" width="49" height="69.2759" transform="rotate(162 892.009 269.885)" fill="#C4C4C4"/>
<rect x="875.458" y="268.157" width="18.5862" height="5.06897" rx="2.53448" transform="rotate(162 875.458 268.157)" fill="white"/>
<rect x="869.552" y="271.852" width="5.06897" height="5.06897" rx="2.53448" transform="rotate(162 869.552 271.852)" fill="white"/>
<rect x="332.246" y="325.851" width="49" height="69.2759" transform="rotate(-141 332.246 325.851)" fill="#C4C4C4"/>
<rect x="324.682" y="311.028" width="18.5862" height="5.06897" rx="2.53448" transform="rotate(-141 324.682 311.028)" fill="white"/>
<rect x="318.366" y="308.088" width="5.06897" height="5.06897" rx="2.53448" transform="rotate(-141 318.366 308.088)" fill="white"/>
<rect x="148.819" y="57.1645" width="49" height="69.2759" transform="rotate(-98 148.819 57.1645)" fill="#C4C4C4"/>
<rect x="153.396" y="41.1649" width="18.5862" height="5.06897" rx="2.53448" transform="rotate(-98 153.396 41.1649)" fill="white"/>
<rect x="150.782" y="34.7072" width="5.06897" height="5.06897" rx="2.53448" transform="rotate(-98 150.782 34.7072)" fill="white"/>
<rect x="700" y="684.414" width="49" height="69.2759" transform="rotate(-48 700 684.414)" fill="#C4C4C4"/>
<rect x="715.198" y="677.636" width="18.5862" height="5.06897" rx="2.53448" transform="rotate(-48 715.198 677.636)" fill="white"/>
<rect x="718.465" y="671.482" width="5.06897" height="5.06897" rx="2.53448" transform="rotate(-48 718.465 671.482)" fill="white"/>
<rect x="1268.83" y="739" width="49" height="69.2759" transform="rotate(46 1268.83 739)" fill="#C4C4C4"/>
<rect x="1274.53" y="754.634" width="18.5862" height="5.06897" rx="2.53448" transform="rotate(46 1274.53 754.634)" fill="white"/>
<rect x="1280.45" y="758.322" width="5.06897" height="5.06897" rx="2.53448" transform="rotate(46 1280.45 758.322)" fill="white"/>
<rect x="550.08" y="266.316" width="58" height="60" rx="2" transform="rotate(-17 550.08 266.316)" fill="#C4C4C4"/>
<path d="M565.349 232.338C566.853 229.102 570.831 227.886 573.887 229.728L603.267 247.432C607.714 250.111 606.889 256.791 601.924 258.309L558.087 271.711C553.123 273.229 548.704 268.152 550.892 263.444L565.349 232.338Z" fill="#C4C4C4"/>
<rect x="556.61" y="232.949" width="26" height="11" transform="rotate(-17 556.61 232.949)" fill="white"/>
<circle cx="574.305" cy="246.362" r="2" transform="rotate(-17 574.305 246.362)" fill="white"/>
<circle cx="574.305" cy="246.362" r="2" transform="rotate(-17 574.305 246.362)" fill="white"/>
<circle cx="574.305" cy="246.362" r="2" transform="rotate(-17 574.305 246.362)" fill="white"/>
<circle cx="579.086" cy="244.9" r="2" transform="rotate(-17 579.086 244.9)" fill="white"/>
<circle cx="579.086" cy="244.9" r="2" transform="rotate(-17 579.086 244.9)" fill="white"/>
<circle cx="579.086" cy="244.9" r="2" transform="rotate(-17 579.086 244.9)" fill="white"/>
<circle cx="569.523" cy="247.824" r="2" transform="rotate(-17 569.523 247.824)" fill="white"/>
<circle cx="569.523" cy="247.824" r="2" transform="rotate(-17 569.523 247.824)" fill="white"/>
<circle cx="569.523" cy="247.824" r="2" transform="rotate(-17 569.523 247.824)" fill="white"/>
<rect x="732.601" y="518.526" width="58" height="60" rx="2" transform="rotate(130 732.601 518.526)" fill="#C4C4C4"/>
<path d="M738.301 555.339C738.802 558.871 736.128 562.058 732.562 562.178L698.28 563.331C693.091 563.506 690.145 557.455 693.482 553.478L722.947 518.363C726.284 514.386 732.755 516.236 733.484 521.377L738.301 555.339Z" fill="#C4C4C4"/>
<rect x="745.297" y="550.066" width="26" height="11" transform="rotate(130 745.297 550.066)" fill="white"/>
<circle cx="723.152" cy="548.455" r="2" transform="rotate(130 723.152 548.455)" fill="white"/>
<circle cx="723.152" cy="548.455" r="2" transform="rotate(130 723.152 548.455)" fill="white"/>
<circle cx="723.152" cy="548.455" r="2" transform="rotate(130 723.152 548.455)" fill="white"/>
<circle cx="719.938" cy="552.285" r="2" transform="rotate(130 719.938 552.285)" fill="white"/>
<circle cx="719.938" cy="552.285" r="2" transform="rotate(130 719.938 552.285)" fill="white"/>
<circle cx="719.938" cy="552.285" r="2" transform="rotate(130 719.938 552.285)" fill="white"/>
<circle cx="726.366" cy="544.624" r="2" transform="rotate(130 726.366 544.624)" fill="white"/>
<circle cx="726.366" cy="544.624" r="2" transform="rotate(130 726.366 544.624)" fill="white"/>
<circle cx="726.366" cy="544.624" r="2" transform="rotate(130 726.366 544.624)" fill="white"/>
<rect x="-25.7786" y="62.7561" width="58" height="60" rx="2" transform="rotate(10 -25.7786 62.7561)" fill="#C4C4C4"/>
<path d="M3.25195 39.413C6.06072 37.2128 10.1574 37.9352 12.0443 40.9633L30.1844 70.0761C32.9299 74.4823 29.1629 80.0595 24.0502 79.1579L-21.0932 71.1979C-26.206 70.2964 -27.8383 63.7672 -23.7513 60.5657L3.25195 39.413Z" fill="#C4C4C4"/>
<rect x="-4.81226" y="35.9902" width="26" height="11" transform="rotate(10 -4.81226 35.9902)" fill="white"/>
<circle cx="4.86463" cy="55.9742" r="2" transform="rotate(10 4.86463 55.9742)" fill="white"/>
<circle cx="4.86463" cy="55.9742" r="2" transform="rotate(10 4.86463 55.9742)" fill="white"/>
<circle cx="4.86463" cy="55.9742" r="2" transform="rotate(10 4.86463 55.9742)" fill="white"/>
<circle cx="9.78864" cy="56.8424" r="2" transform="rotate(10 9.78864 56.8424)" fill="white"/>
<circle cx="9.78864" cy="56.8424" r="2" transform="rotate(10 9.78864 56.8424)" fill="white"/>
<circle cx="9.78864" cy="56.8424" r="2" transform="rotate(10 9.78864 56.8424)" fill="white"/>
<circle cx="-0.0594436" cy="55.1059" r="2" transform="rotate(10 -0.0594436 55.1059)" fill="white"/>
<circle cx="-0.0594436" cy="55.1059" r="2" transform="rotate(10 -0.0594436 55.1059)" fill="white"/>
<circle cx="-0.0594436" cy="55.1059" r="2" transform="rotate(10 -0.0594436 55.1059)" fill="white"/>
<rect x="1033.42" y="249.221" width="58" height="60" rx="2" transform="rotate(100 1033.42 249.221)" fill="#C4C4C4"/>
<path d="M1056.76 278.252C1058.96 281.061 1058.24 285.157 1055.21 287.044L1026.1 305.184C1021.69 307.93 1016.11 304.163 1017.02 299.05L1024.98 253.907C1025.88 248.794 1032.41 247.162 1035.61 251.249L1056.76 278.252Z" fill="#C4C4C4"/>
<rect x="1060.18" y="270.188" width="26" height="11" transform="rotate(100 1060.18 270.188)" fill="white"/>
<circle cx="1040.2" cy="279.865" r="2" transform="rotate(100 1040.2 279.865)" fill="white"/>
<circle cx="1040.2" cy="279.865" r="2" transform="rotate(100 1040.2 279.865)" fill="white"/>
<circle cx="1040.2" cy="279.865" r="2" transform="rotate(100 1040.2 279.865)" fill="white"/>
<circle cx="1039.33" cy="284.789" r="2" transform="rotate(100 1039.33 284.789)" fill="white"/>
<circle cx="1039.33" cy="284.789" r="2" transform="rotate(100 1039.33 284.789)" fill="white"/>
<circle cx="1039.33" cy="284.789" r="2" transform="rotate(100 1039.33 284.789)" fill="white"/>
<circle cx="1041.07" cy="274.941" r="2" transform="rotate(100 1041.07 274.941)" fill="white"/>
<circle cx="1041.07" cy="274.941" r="2" transform="rotate(100 1041.07 274.941)" fill="white"/>
<circle cx="1041.07" cy="274.941" r="2" transform="rotate(100 1041.07 274.941)" fill="white"/>
<rect x="173.165" y="718.874" width="58" height="60" rx="2" transform="rotate(-76 173.165 718.874)" fill="#C4C4C4"/>
<path d="M151.904 688.286C149.905 685.331 150.911 681.295 154.063 679.623L184.371 663.558C188.958 661.127 194.258 665.274 193.003 670.311L181.913 714.789C180.657 719.827 174.03 721 171.121 716.699L151.904 688.286Z" fill="#C4C4C4"/>
<rect x="147.927" y="696.092" width="26" height="11" transform="rotate(-76 147.927 696.092)" fill="white"/>
<circle cx="168.537" cy="687.833" r="2" transform="rotate(-76 168.537 687.833)" fill="white"/>
<circle cx="168.537" cy="687.833" r="2" transform="rotate(-76 168.537 687.833)" fill="white"/>
<circle cx="168.537" cy="687.833" r="2" transform="rotate(-76 168.537 687.833)" fill="white"/>
<circle cx="169.747" cy="682.981" r="2" transform="rotate(-76 169.747 682.981)" fill="white"/>
<circle cx="169.747" cy="682.981" r="2" transform="rotate(-76 169.747 682.981)" fill="white"/>
<circle cx="169.747" cy="682.981" r="2" transform="rotate(-76 169.747 682.981)" fill="white"/>
<circle cx="167.327" cy="692.684" r="2" transform="rotate(-76 167.327 692.684)" fill="white"/>
<circle cx="167.327" cy="692.684" r="2" transform="rotate(-76 167.327 692.684)" fill="white"/>
<circle cx="167.327" cy="692.684" r="2" transform="rotate(-76 167.327 692.684)" fill="white"/>
<rect x="153.601" y="291.601" width="58" height="60" rx="2" transform="rotate(-140 153.601 291.601)" fill="#C4C4C4"/>
<path d="M116.788 297.301C113.256 297.802 110.069 295.128 109.949 291.562L108.796 257.28C108.621 252.091 114.672 249.145 118.649 252.482L153.764 281.947C157.741 285.284 155.89 291.755 150.75 292.484L116.788 297.301Z" fill="#C4C4C4"/>
<rect x="122.061" y="304.297" width="26" height="11" transform="rotate(-140 122.061 304.297)" fill="white"/>
<circle cx="123.672" cy="282.152" r="2" transform="rotate(-140 123.672 282.152)" fill="white"/>
<circle cx="123.672" cy="282.152" r="2" transform="rotate(-140 123.672 282.152)" fill="white"/>
<circle cx="123.672" cy="282.152" r="2" transform="rotate(-140 123.672 282.152)" fill="white"/>
<circle cx="119.842" cy="278.938" r="2" transform="rotate(-140 119.842 278.938)" fill="white"/>
<circle cx="119.842" cy="278.938" r="2" transform="rotate(-140 119.842 278.938)" fill="white"/>
<circle cx="119.842" cy="278.938" r="2" transform="rotate(-140 119.842 278.938)" fill="white"/>
<circle cx="127.503" cy="285.366" r="2" transform="rotate(-140 127.503 285.366)" fill="white"/>
<circle cx="127.503" cy="285.366" r="2" transform="rotate(-140 127.503 285.366)" fill="white"/>
<circle cx="127.503" cy="285.366" r="2" transform="rotate(-140 127.503 285.366)" fill="white"/>
<rect x="618.44" y="97.3413" width="16" height="36" rx="2" transform="rotate(-40 618.44 97.3413)" fill="#E0DFDF"/>
<path d="M619.953 88.3675C620.017 87.5279 620.759 86.9051 621.597 86.9883L630.089 87.8306C631.41 87.9617 631.922 89.6187 630.905 90.4723L621.768 98.139C620.751 98.9926 619.208 98.2007 619.308 96.8765L619.953 88.3675Z" fill="#E0DFDF"/>
<rect x="617.128" y="87.999" width="6" height="4" transform="rotate(-40 617.128 87.999)" fill="#E0DFDF"/>
<rect x="624.868" y="105.002" width="16" height="10" transform="rotate(-40 624.868 105.002)" fill="#AEACAC"/>
<rect x="109.123" y="873.343" width="16" height="36" rx="2" transform="rotate(33 109.123 873.343)" fill="#E0DFDF"/>
<path d="M118.147 872.166C118.969 871.982 119.781 872.509 119.947 873.335L121.624 881.702C121.885 883.004 120.45 883.978 119.336 883.255L109.333 876.759C108.219 876.035 108.526 874.328 109.821 874.037L118.147 872.166Z" fill="#E0DFDF"/>
<rect x="117.673" y="869.357" width="6" height="4" transform="rotate(33 117.673 869.357)" fill="#E0DFDF"/>
<rect x="103.677" y="881.73" width="16" height="10" transform="rotate(33 103.677 881.73)" fill="#AEACAC"/>
<rect x="127.968" y="356.645" width="16" height="36" rx="2" transform="rotate(-15 127.968 356.645)" fill="#E0DFDF"/>
<path d="M133.132 349.151C133.544 348.417 134.48 348.166 135.205 348.596L142.545 352.948C143.687 353.625 143.451 355.344 142.168 355.687L130.647 358.774C129.364 359.118 128.301 357.748 128.951 356.59L133.132 349.151Z" fill="#E0DFDF"/>
<rect x="130.727" y="347.623" width="6" height="4" transform="rotate(-15 130.727 347.623)" fill="#E0DFDF"/>
<rect x="130.557" y="366.304" width="16" height="10" transform="rotate(-15 130.557 366.304)" fill="#AEACAC"/>
<rect x="1126.68" y="369.668" width="16" height="36" rx="2" transform="rotate(69 1126.68 369.668)" fill="#E0DFDF"/>
<path d="M1134.68 374.02C1135.45 374.353 1135.8 375.258 1135.45 376.023L1131.88 383.778C1131.33 384.985 1129.6 384.929 1129.12 383.689L1124.85 372.554C1124.37 371.315 1125.62 370.113 1126.84 370.64L1134.68 374.02Z" fill="#E0DFDF"/>
<rect x="1135.94" y="371.469" width="6" height="4" transform="rotate(69 1135.94 371.469)" fill="#E0DFDF"/>
<rect x="1117.35" y="373.251" width="16" height="10" transform="rotate(69 1117.35 373.251)" fill="#AEACAC"/>
<rect x="763.59" y="442.327" width="16" height="36" rx="2" transform="rotate(-160 763.59 442.327)" fill="#E0DFDF"/>
<path d="M755.062 445.504C754.303 445.869 753.393 445.537 753.046 444.77L749.53 436.995C748.982 435.785 750.161 434.513 751.409 434.967L762.617 439.047C763.865 439.501 763.951 441.233 762.754 441.808L755.062 445.504Z" fill="#E0DFDF"/>
<rect x="756.156" y="448.135" width="6" height="4" transform="rotate(-160 756.156 448.135)" fill="#E0DFDF"/>
<rect x="767.011" y="432.93" width="16" height="10" transform="rotate(-160 767.011 432.93)" fill="#AEACAC"/>
<rect x="749.111" y="264.246" width="16" height="36" rx="2" transform="rotate(85 749.111 264.246)" fill="#E0DFDF"/>
<path d="M755.594 270.632C756.245 271.166 756.329 272.131 755.781 272.77L750.22 279.243C749.355 280.25 747.704 279.719 747.588 278.396L746.548 266.514C746.433 265.191 747.966 264.381 748.994 265.223L755.594 270.632Z" fill="#E0DFDF"/>
<rect x="757.516" y="268.529" width="6" height="4" transform="rotate(85 757.516 268.529)" fill="#E0DFDF"/>
<rect x="739.149" y="265.117" width="16" height="10" transform="rotate(85 739.149 265.117)" fill="#AEACAC"/>
<rect x="511.778" y="611.092" width="16" height="36" rx="2" transform="rotate(-45 511.778 611.092)" fill="#E0DFDF"/>
<path d="M512.503 602.02C512.493 601.178 513.178 600.493 514.02 600.503L522.553 600.602C523.881 600.618 524.535 602.224 523.596 603.163L515.163 611.596C514.224 612.535 512.618 611.881 512.602 610.553L512.503 602.02Z" fill="#E0DFDF"/>
<rect x="509.657" y="601.899" width="6" height="4" transform="rotate(-45 509.657 601.899)" fill="#E0DFDF"/>
<rect x="518.849" y="618.163" width="16" height="10" transform="rotate(-45 518.849 618.163)" fill="#AEACAC"/>
<rect x="1352.21" y="156.399" width="16" height="36" rx="2" transform="rotate(10 1352.21 156.399)" fill="#E0DFDF"/>
<path d="M1360.05 151.79C1360.74 151.299 1361.69 151.467 1362.17 152.163L1366.98 159.209C1367.73 160.306 1366.79 161.763 1365.48 161.532L1353.73 159.461C1352.43 159.231 1352.04 157.54 1353.12 156.765L1360.05 151.79Z" fill="#E0DFDF"/>
<rect x="1358.52" y="149.389" width="6" height="4" transform="rotate(10 1358.52 149.389)" fill="#E0DFDF"/>
<rect x="1350.47" y="166.247" width="16" height="10" transform="rotate(10 1350.47 166.247)" fill="#AEACAC"/>
<rect x="977.953" y="155.473" width="16" height="36" rx="2" transform="rotate(-48 977.953 155.473)" fill="#E0DFDF"/>
<path d="M978.202 146.376C978.148 145.535 978.796 144.815 979.638 144.781L988.164 144.433C989.491 144.379 990.228 145.949 989.34 146.936L981.359 155.8C980.47 156.786 978.832 156.217 978.747 154.892L978.202 146.376Z" fill="#E0DFDF"/>
<rect x="975.353" y="146.404" width="6" height="4" transform="rotate(-48 975.353 146.404)" fill="#E0DFDF"/>
<rect x="985.384" y="162.164" width="16" height="10" transform="rotate(-48 985.384 162.164)" fill="#AEACAC"/>
<rect x="1132" y="700.136" width="16" height="36" rx="2" transform="rotate(-128 1132 700.136)" fill="#E0DFDF"/>
<path d="M1123.09 698.311C1122.25 698.218 1121.65 697.455 1121.77 696.62L1122.9 688.163C1123.08 686.847 1124.75 686.393 1125.57 687.44L1132.91 696.838C1133.73 697.885 1132.89 699.399 1131.57 699.253L1123.09 698.311Z" fill="#E0DFDF"/>
<rect x="1122.62" y="701.121" width="6" height="4" transform="rotate(-128 1122.62 701.121)" fill="#E0DFDF"/>
<rect x="1139.88" y="693.979" width="16" height="10" transform="rotate(-128 1139.88 693.979)" fill="#AEACAC"/>
<rect x="1422.6" y="845.428" width="16" height="36" rx="2" transform="rotate(-30 1422.6 845.428)" fill="#E0DFDF"/>
<path d="M1425.65 836.853C1425.85 836.038 1426.69 835.553 1427.5 835.781L1435.72 838.085C1437 838.443 1437.22 840.164 1436.07 840.828L1425.74 846.792C1424.59 847.456 1423.2 846.408 1423.53 845.121L1425.65 836.853Z" fill="#E0DFDF"/>
<rect x="1422.93" y="836" width="6" height="4" transform="rotate(-30 1422.93 836)" fill="#E0DFDF"/>
<rect x="1427.6" y="854.088" width="16" height="10" transform="rotate(-30 1427.6 854.088)" fill="#AEACAC"/>
<rect x="757.283" y="111.25" width="52" height="67" rx="1" transform="rotate(77 757.283 111.25)" fill="#C4C4C4"/>
<rect x="766.503" y="124.515" width="4" height="10" transform="rotate(77 766.503 124.515)" fill="#C4C4C4"/>
<rect x="767.403" y="128.413" width="4" height="14" transform="rotate(-13 767.403 128.413)" fill="#C4C4C4"/>
<rect x="770.552" y="142.054" width="4" height="10" transform="rotate(77 770.552 142.054)" fill="#C4C4C4"/>
<rect x="764.978" y="126.957" width="2.87866" height="5.65685" transform="rotate(-58 764.978 126.957)" fill="#C4C4C4"/>
<rect x="772.017" y="139.663" width="2.87866" height="5.65685" transform="rotate(32 772.017 139.663)" fill="#C4C4C4"/>
<rect x="1400.92" y="527.397" width="52" height="67" rx="1" transform="rotate(20 1400.92 527.397)" fill="#C4C4C4"/>
<rect x="1417.06" y="526.889" width="4" height="10" transform="rotate(20 1417.06 526.889)" fill="#C4C4C4"/>
<rect x="1420.82" y="528.257" width="4" height="14" transform="rotate(-70 1420.82 528.257)" fill="#C4C4C4"/>
<rect x="1433.98" y="533.045" width="4" height="10" transform="rotate(20 1433.98 533.045)" fill="#C4C4C4"/>
<rect x="1418.28" y="529.498" width="2.87866" height="5.65685" transform="rotate(-115 1418.28 529.498)" fill="#C4C4C4"/>
<rect x="1432.77" y="530.515" width="2.87866" height="5.65685" transform="rotate(-25 1432.77 530.515)" fill="#C4C4C4"/>
<rect x="416.848" y="40.9465" width="52" height="67" rx="1" transform="rotate(-80 416.848 40.9465)" fill="#C4C4C4"/>
<rect x="413.544" y="25.1325" width="4" height="10" transform="rotate(-80 413.544 25.1325)" fill="#C4C4C4"/>
<rect x="414.239" y="21.1932" width="4" height="14" transform="rotate(-170 414.239 21.1932)" fill="#C4C4C4"/>
<rect x="416.67" y="7.40591" width="4" height="10" transform="rotate(-80 416.67 7.40591)" fill="#C4C4C4"/>
<rect x="415.902" y="23.4813" width="2.87866" height="5.65685" transform="rotate(145 415.902 23.4813)" fill="#C4C4C4"/>
<rect x="414.388" y="9.03442" width="2.87866" height="5.65685" transform="rotate(-125 414.388 9.03442)" fill="#C4C4C4"/>
<rect x="473.256" y="807.385" width="52" height="67" rx="1" transform="rotate(-19 473.256 807.385)" fill="#C4C4C4"/>
<rect x="485.485" y="796.828" width="4" height="10" transform="rotate(-19 485.485 796.828)" fill="#C4C4C4"/>
<rect x="489.267" y="795.526" width="4" height="14" transform="rotate(-109 489.267 795.526)" fill="#C4C4C4"/>
<rect x="502.504" y="790.968" width="4" height="10" transform="rotate(-19 502.504 790.968)" fill="#C4C4C4"/>
<rect x="488.072" y="798.09" width="2.87866" height="5.65685" transform="rotate(-154 488.072 798.09)" fill="#C4C4C4"/>
<rect x="499.974" y="789.762" width="2.87866" height="5.65685" transform="rotate(-64 499.974 789.762)" fill="#C4C4C4"/>
<rect x="343.721" y="404.09" width="52" height="67" rx="1" transform="rotate(72 343.721 404.09)" fill="#C4C4C4"/>
<rect x="354.062" y="416.502" width="4" height="10" transform="rotate(72 354.062 416.502)" fill="#C4C4C4"/>
<rect x="355.298" y="420.306" width="4" height="14" transform="rotate(-18 355.298 420.306)" fill="#C4C4C4"/>
<rect x="359.625" y="433.621" width="4" height="10" transform="rotate(72 359.625 433.621)" fill="#C4C4C4"/>
<rect x="352.755" y="419.067" width="2.87866" height="5.65685" transform="rotate(-63 352.755 419.067)" fill="#C4C4C4"/>
<rect x="360.875" y="431.112" width="2.87866" height="5.65685" transform="rotate(27 360.875 431.112)" fill="#C4C4C4"/>
<rect x="903.325" y="726.428" width="52" height="67" rx="1" transform="rotate(50 903.325 726.428)" fill="#C4C4C4"/>
<rect x="917.563" y="734.062" width="4" height="10" transform="rotate(50 917.563 734.062)" fill="#C4C4C4"/>
<rect x="920.134" y="737.126" width="4" height="14" transform="rotate(-40 920.134 737.126)" fill="#C4C4C4"/>
<rect x="929.133" y="747.851" width="4" height="10" transform="rotate(50 929.133 747.851)" fill="#C4C4C4"/>
<rect x="917.312" y="736.93" width="2.87866" height="5.65685" transform="rotate(-85 917.312 736.93)" fill="#C4C4C4"/>
<rect x="929.353" y="745.056" width="2.87866" height="5.65685" transform="rotate(5 929.353 745.056)" fill="#C4C4C4"/>
<rect x="1309.43" y="17.0854" width="52" height="67" rx="1" transform="rotate(-40 1309.43 17.0854)" fill="#C4C4C4"/>
<rect x="1317.06" y="2.84732" width="4" height="10" transform="rotate(-40 1317.06 2.84732)" fill="#C4C4C4"/>
<rect x="1320.13" y="0.276184" width="4" height="14" transform="rotate(-130 1320.13 0.276184)" fill="#C4C4C4"/>
<rect x="1319.93" y="3.09821" width="2.87866" height="5.65685" transform="rotate(-175 1319.93 3.09821)" fill="#C4C4C4"/>
</g>
<defs>
<clipPath id="clip0">
<rect width="1440" height="900" fill="white"/>
</clipPath>
</defs>
</svg>
